<?xml version="1.0" encoding="UTF-8"?>
<svg width="24" height="24" version="1.1" viewBox="-10 0 24 24" xmlns="http://www.w3.org/2000/svg">
 <path d="m11.141 6.9375q1.3594 1.2188 1.3594 3.0938v9.75q0 1.7812-1.2188 3t-3 1.2188h-12.562q-1.7812 0-3-1.2188t-1.2188-3v-9.75q0-1.875 1.3594-3.0938l6.2812-5.8125q1.2188-1.125 2.8594-1.125 1.6875 0 2.8594 1.125zm-7.0312 7.7344q0-0.32812-0.32812-0.32812h-3.5625q-0.32812 0-0.32812 0.32812v6.9375h4.2188zm6-4.6406q0-0.79688-0.60938-1.3125l-6.2812-5.8594q-0.5625-0.46875-1.2188-0.46875t-1.2188 0.46875l-6.2812 5.8594q-0.60938 0.51562-0.60938 1.3125v9.75q0 0.79688 0.51562 1.3125t1.3125 0.51562h1.7812v-6.9375q0-1.125 0.79688-1.9219t1.9219-0.79688h3.5625q1.125 0 1.9219 0.79688t0.79688 1.9219v6.9375h1.7812q0.79688 0 1.3125-0.51562t0.51562-1.3125z"/>
</svg>
