<?xml version="1.0" encoding="UTF-8"?>
<svg width="24" height="24" version="1.1" viewBox="-10 0 24 24" xmlns="http://www.w3.org/2000/svg">
 <path d="m0.875 0c-0.40625 0-0.70312 0.14063-0.89062 0.42188l-6.7031 7.7812c-0.1875 0.21875-0.28125 0.48437-0.28125 0.79687v13.781c0 0.34375 0.11719 0.63281 0.35156 0.86719 0.23438 0.23437 0.52344 0.35156 0.86719 0.35156h15.562c0.34375 0 0.63281-0.11719 0.86719-0.35156 0.23437-0.23438 0.35156-0.52344 0.35156-0.86719v-21.562c0-0.34375-0.11719-0.63281-0.35156-0.86719-0.23438-0.23437-0.52344-0.35156-0.86719-0.35156zm0.5625 2.3906h7.1719v19.219h-13.219v-12.188zm3.9844 2.1094c-0.46875 0-0.82813 0.23438-1.0781 0.70313l-1.7812 3.7969h-1.6406c-0.34375 0-0.64063 0.125-0.89063 0.375l-2.3906 2.7188c-0.1875 0.21875-0.28125 0.48438-0.28125 0.79688 0 0.34374 0.10937 0.63281 0.32812 0.86718 0.21875 0.23438 0.5 0.35157 0.84375 0.35157 0.375 0 0.67187-0.14063 0.89063-0.42188l2.0625-2.2969h1.875c0.49999 0 0.85937-0.23438 1.0781-0.70313l2.1094-4.5c0.0625-0.1875 0.0937-0.35938 0.0937-0.51562 0-0.34375-0.11719-0.625-0.35157-0.84375-0.23437-0.21875-0.52344-0.32813-0.86718-0.32813zm0.45703 9c-0.34375 0-0.625 0.11719-0.84375 0.35156-0.21875 0.23438-0.32813 0.52344-0.32813 0.86719v3.5625c0 0.34375 0.10938 0.63281 0.32813 0.86719 0.21875 0.23437 0.5 0.35156 0.84375 0.35156s0.63281-0.11719 0.86718-0.35156c0.23438-0.23438 0.35157-0.52344 0.35157-0.86719v-3.5625c0-0.34375-0.11719-0.63281-0.35157-0.86719-0.23437-0.23437-0.52343-0.35156-0.86718-0.35156zm-3.8555 1.5c-0.34375 0-0.63281 0.11719-0.86719 0.35156-0.23437 0.23438-0.35156 0.52344-0.35156 0.86719v2.0625c0 0.34375 0.11719 0.63281 0.35156 0.86719 0.23438 0.23437 0.52344 0.35156 0.86719 0.35156s0.625-0.11719 0.84375-0.35156c0.21875-0.23438 0.32812-0.52344 0.32812-0.86719v-2.0625c0-0.34375-0.10937-0.63281-0.32812-0.86719-0.21875-0.23437-0.5-0.35156-0.84375-0.35156zm-3.9492 1.5c-0.34375 0-0.625 0.11719-0.84375 0.35156-0.21875 0.23438-0.32813 0.52344-0.32813 0.86719v0.5625c0 0.34375 0.10938 0.63281 0.32813 0.86719 0.21875 0.23437 0.5 0.35156 0.84375 0.35156s0.63281-0.11719 0.86719-0.35156c0.23437-0.23438 0.35156-0.52344 0.35156-0.86719v-0.5625c0-0.34375-0.11719-0.63281-0.35156-0.86719-0.23438-0.23437-0.52344-0.35156-0.86719-0.35156z"/>
</svg>
