<?xml version="1.0" encoding="UTF-8"?>
<svg width="24" height="24" version="1.1" viewBox="-10 0 24 24" xmlns="http://www.w3.org/2000/svg">
 <path d="m8.3281 3q1.7344 0 2.9531 1.2188t1.2188 2.9531v12.609q0 1.7812-1.2188 3t-2.9531 1.2188h-12.609q-1.7812 0-3-1.2188t-1.2188-3v-12.609q0-1.7344 1.2188-2.9531t3-1.2188h0.5625q0.51562 0 0.84375 0.32812t0.32812 0.84375-0.32812 0.86719-0.84375 0.35156h-0.5625q-0.79688 0-1.3125 0.51562t-0.51562 1.2656v6.9375h4.5q0.98438 0 1.2188 1.125 0.14062 0.79688 0.82031 1.3359 0.67969 0.53906 1.5703 0.53906 0.9375 0 1.6172-0.53906 0.67969-0.53906 0.82031-1.3359 0.23438-1.125 1.1719-1.125h4.5v-6.9375q0-0.75-0.51562-1.2656t-1.2656-0.51562h-0.60938q-0.51562 0-0.86719-0.35156-0.35156-0.35156-0.35156-0.86719t0.35156-0.84375q0.35156-0.32812 0.86719-0.32812zm0 18.609q0.75 0 1.2656-0.51562t0.51562-1.3125v-3.2812h-3.6094q-0.5625 1.3594-1.7812 2.1797-1.2188 0.82031-2.7188 0.82031t-2.7188-0.82031q-1.2188-0.82031-1.7344-2.1797h-3.6562v3.2812q0 0.79688 0.51562 1.3125t1.3125 0.51562zm-10.781-13.547q-0.32812-0.32812-0.32812-0.89062 0-0.46875 0.35156-0.82031t0.82031-0.35156q0.5625 0 0.89062 0.32812l1.5469 1.5938v-6.75q0-0.51562 0.35156-0.84375t0.86719-0.32812 0.84375 0.35156 0.32812 0.86719v6.7031l1.5469-1.5938q0.32812-0.32812 0.89062-0.32812 0.46875 0 0.82031 0.35156 0.35156 0.35156 0.35156 0.82031 0 0.5625-0.32812 0.89062l-3.6094 3.6094q-0.32812 0.32812-0.84375 0.32812-0.5625 0-0.89062-0.32812z"/>
</svg>
