<?xml version="1.0" encoding="UTF-8"?>
<svg class="dsm-table-icon" width="16" height="16" version="1.1" viewBox="0 0 16 16" xml:space="preserve" xmlns="http://www.w3.org/2000/svg"><path d="m3.85 2.4c-0.63333 0-1.1667 0.21667-1.6 0.65-0.43333 0.43333-0.65 0.96667-0.65 1.6v2.55h-0.95c-0.18333 0-0.3375 0.062497-0.4625 0.1875-0.125 0.125-0.1875 0.27917-0.1875 0.4625 0 0.18333 0.062497 0.33333 0.1875 0.45 0.125 0.11667 0.27917 0.175 0.4625 0.175h0.95v4.475c0 0.18333 0.062497 0.3375 0.1875 0.4625 0.125 0.125 0.27917 0.1875 0.4625 0.1875 0.18333 0 0.33333-0.0625 0.45-0.1875 0.11667-0.125 0.175-0.27917 0.175-0.4625v-4.475h1.275c0.18333 0 0.3375-0.058335 0.4625-0.175 0.125-0.11667 0.1875-0.26667 0.1875-0.45 0-0.18333-0.062498-0.3375-0.1875-0.4625-0.125-0.125-0.27917-0.1875-0.4625-0.1875h-1.275v-2.55c0-0.28333 0.091667-0.51667 0.275-0.7 0.18333-0.18333 0.41667-0.275 0.7-0.275h1.1c0.18333 0 0.3375-0.058335 0.4625-0.175 0.125-0.11667 0.1875-0.26667 0.1875-0.45 0-0.18333-0.062498-0.3375-0.1875-0.4625-0.125-0.125-0.27917-0.1875-0.4625-0.1875zm2.5 4.8c-0.23333 0-0.41667 0.062497-0.55 0.1875-0.13333 0.125-0.2 0.27917-0.2 0.4625 0 0.18333 0.062497 0.33333 0.1875 0.45 0.125 0.11667 0.27917 0.175 0.4625 0.175 0.2 0 0.36667 0.091667 0.5 0.275l1.275 1.675-1.275 1.7c-0.03333 0.05-0.091667 0.09583-0.175 0.1375-0.083333 0.04167-0.15 0.0625-0.2 0.0625h-0.125c-0.18333 0-0.3375 0.05833-0.4625 0.175-0.125 0.11667-0.1875 0.26667-0.1875 0.45s0.062497 0.3375 0.1875 0.4625c0.125 0.125 0.27917 0.1875 0.4625 0.1875h0.125c0.25 0 0.50833-0.06667 0.775-0.2 0.26667-0.13333 0.475-0.3 0.625-0.5l1.05-1.425 1.075 1.425c0.16667 0.21667 0.37083 0.3875 0.6125 0.5125 0.24167 0.125 0.50417 0.1875 0.7875 0.1875h0.05c0.18333 0 0.3375-0.0625 0.4625-0.1875 0.125-0.125 0.1875-0.27917 0.1875-0.4625 0-0.18333-0.0625-0.33333-0.1875-0.45-0.125-0.11667-0.27917-0.175-0.4625-0.175h-0.05c-0.11667 0-0.20417-0.025-0.2625-0.075-0.05833-0.05-0.10417-0.09167-0.1375-0.125l-1.275-1.7 1.275-1.75c0.03333-0.033338 0.07917-0.075 0.1375-0.125 0.05833-0.050002 0.14583-0.075 0.2625-0.075h0.05c0.18333 0 0.3375-0.058335 0.4625-0.175 0.125-0.11667 0.1875-0.26667 0.1875-0.45 0-0.18333-0.0625-0.3375-0.1875-0.4625-0.125-0.125-0.27917-0.1875-0.4625-0.1875h-0.05c-0.28333 0-0.54583 0.058335-0.7875 0.175-0.24167 0.11667-0.44583 0.29167-0.6125 0.525l-1.075 1.45-1.05-1.4c-0.18333-0.23333-0.40833-0.41667-0.675-0.55-0.26667-0.13333-0.51667-0.2-0.75-0.2z" /></svg>