<?xml version="1.0" encoding="UTF-8"?>
<svg class="dsm-table-icon" width="16" height="16" version="1.1" viewBox="0 0 16 16" xmlns="http://www.w3.org/2000/svg"><path d="m6 2.0002c-0.8281 0-1.6093 0.15624-2.3437 0.46873-0.73435 0.31249-1.371 0.73826-1.9101 1.2773-0.53904 0.53904-0.96481 1.1757-1.2773 1.9101-0.31249 0.73435-0.46873 1.5156-0.46873 2.3437s0.15624 1.6093 0.46873 2.3437c0.22965 0.53967 0.52102 1.0262 0.87302 1.4604l-1.1645 1.1645c-0.2366 0.2366-0.2366 0.61738 0 0.85397s0.61738 0.2366 0.85397 0l1.1645-1.1645c0.43419 0.352 0.92073 0.64337 1.4604 0.87302 0.73435 0.31249 1.5156 0.46873 2.3437 0.46873s1.6093-0.15624 2.3437-0.46873c0.73435-0.31249 1.371-0.73826 1.9101-1.2773 0.53904-0.53904 0.96481-1.1757 1.2773-1.9101 0.31249-0.73435 0.46873-1.5156 0.46873-2.3437s-0.15624-1.6093-0.46873-2.3437c-0.22965-0.53967-0.52102-1.0262-0.87302-1.4604l1.1645-1.1645c0.2366-0.2366 0.2366-0.61738 0-0.85397s-0.61738-0.2366-0.85397 0l-1.1645 1.1645c-0.43419-0.352-0.92073-0.64337-1.4604-0.87302-0.73435-0.31249-1.5156-0.46873-2.3437-0.46873zm0 1.1953c0.67185 0 1.3007 0.125 1.8867 0.37499 0.39091 0.16679 0.74647 0.37284 1.0678 0.61961l-6.7527 6.7542c-0.25252-0.32487-0.4634-0.68098-0.63133-1.0693-0.24999-0.5781-0.37499-1.2031-0.37499-1.8749 0-0.67185 0.125-1.3007 0.37499-1.8867 0.24999-0.58592 0.59373-1.0937 1.0312-1.5234 0.43748-0.42967 0.94528-0.7695 1.5234-1.0195 0.5781-0.24999 1.2031-0.37499 1.8749-0.37499zm3.8099 1.85c0.24677 0.32136 0.45282 0.67692 0.61961 1.0678 0.24999 0.58592 0.37499 1.2148 0.37499 1.8867 0 0.67185-0.125 1.2968-0.37499 1.8749s-0.58982 1.0859-1.0195 1.5234c-0.42967 0.43748-0.93747 0.78122-1.5234 1.0312-0.58592 0.24999-1.2148 0.37499-1.8867 0.37499-0.67185 0-1.2968-0.125-1.8749-0.37499-0.38832-0.16792-0.74442-0.3788-1.0693-0.63133z" /></svg>