<?xml version="1.0" encoding="UTF-8"?>
<svg class="dsm-table-icon" width="16" height="16" version="1.1" viewBox="0 0 16 16" xmlns="http://www.w3.org/2000/svg"><path d="m6.0117 2c-0.17187 0-0.3164 0.05469-0.43359 0.16406-0.11719 0.10938-0.17578 0.25-0.17578 0.42188v3.9805l-2.8125-2.8125c-0.12153-0.12153-0.25939-0.18358-0.41406-0.18359-0.15468 3.5e-6 -0.29252 0.062056-0.41406 0.18359-0.12153 0.12153-0.18588 0.26167-0.19141 0.42188-0.00553 0.16021 0.052295 0.30034 0.17383 0.42188l2.8047 2.8047h-3.9629c-0.17187 0-0.3125 0.058601-0.42188 0.17578-0.10938 0.11719-0.16406 0.26172-0.16406 0.43359 0 0.17188 0.05469 0.3125 0.16406 0.42188 0.10938 0.10938 0.25 0.16406 0.42188 0.16406h3.9629l-2.8047 2.8047c-0.12153 0.12153-0.17935 0.26168-0.17383 0.42188 0.0055 0.16021 0.069881 0.30034 0.19141 0.42188 0.12154 0.12154 0.25938 0.18359 0.41406 0.18359 0.15468 2e-6 0.29253-0.06206 0.41406-0.18359l2.8125-2.8125v3.9805c0 0.17188 0.058601 0.3125 0.17578 0.42188 0.11719 0.10938 0.26172 0.16406 0.43359 0.16406 0.17188 0 0.3125-0.05469 0.42188-0.16406 0.10938-0.10938 0.16406-0.25 0.16406-0.42188v-3.9648l2.8047 2.8066c0.12153 0.12153 0.26168 0.17935 0.42188 0.17383 0.1602-0.0055 0.30034-0.06987 0.42188-0.19141 0.12154-0.12154 0.18359-0.25938 0.18359-0.41406 2e-6 -0.15468-0.06206-0.29253-0.18359-0.41406l-2.8125-2.8125h3.9805c0.17188 0 0.3125-0.054702 0.42188-0.16406 0.10938-0.10938 0.16406-0.25 0.16406-0.42188 0-0.17187-0.05469-0.3164-0.16406-0.43359-0.10938-0.11719-0.25-0.17578-0.42188-0.17578h-3.9805l2.8125-2.8125c0.12153-0.12153 0.18358-0.25939 0.18359-0.41406-3e-6 -0.15468-0.062059-0.29252-0.18359-0.41406-0.12153-0.12153-0.26167-0.18588-0.42188-0.19141-0.16021-0.005525-0.30034 0.052295-0.42188 0.17383l-2.8047 2.8066v-3.9648c0-0.17187-0.054703-0.3125-0.16406-0.42188-0.10938-0.10938-0.25-0.16406-0.42188-0.16406z" /></svg>
