<?xml version="1.0" encoding="UTF-8"?>
<svg class="dsm-table-icon" width="16" height="16" version="1.1" viewBox="0 0 16 16" xmlns="http://www.w3.org/2000/svg"><path d="m5.297 2c-0.17187 0-0.3164 0.05469-0.43359 0.16406-0.11719 0.10938-0.17578 0.25-0.17578 0.42188v4.3828l-3.7949-2.1914c-0.14884-0.08594-0.29981-0.10838-0.44922-0.06836-0.14942 0.04004-0.26562 0.13435-0.35156 0.2832-0.08593 0.14884-0.1123 0.30281-0.076172 0.45898 0.03613 0.15618 0.13044 0.27539 0.2793 0.36133l3.7871 2.1875-3.7871 2.1875c-0.14885 0.08594-0.24316 0.20711-0.2793 0.36328-0.03613 0.15618-0.00976 0.30819 0.076172 0.45703 0.08594 0.14885 0.20215 0.24316 0.35156 0.2832 0.14942 0.04004 0.30037 0.01758 0.44922-0.06836l3.7949-2.1914v4.3828c0 0.17188 0.0586 0.31249 0.17578 0.42188 0.11719 0.10938 0.26172 0.16406 0.43359 0.16406 0.17188 0 0.3125-0.05469 0.42188-0.16406 0.10938-0.10938 0.16406-0.25 0.16406-0.42188v-4.375l3.7891 2.1875c0.14885 0.08594 0.29981 0.10734 0.45313 0.06055 0.15333-0.04678 0.27344-0.14608 0.35938-0.29492 0.08594-0.14885 0.10839-0.29785 0.06836-0.44727-0.04004-0.14942-0.13435-0.26758-0.2832-0.35352l-3.7949-2.1914 3.7949-2.1914c0.14884-0.08594 0.24316-0.20412 0.2832-0.35352 0.04003-0.14942 0.01758-0.29841-0.06836-0.44727-0.08593-0.14884-0.20606-0.24616-0.35938-0.29297-0.15332-0.0468-0.30427-0.02735-0.45313 0.05859l-3.7891 2.1875v-4.375c0-0.17187-0.0547-0.3125-0.16406-0.42188-0.10938-0.10938-0.25-0.16406-0.42188-0.16406z"/></svg>
