<?xml version="1.0" encoding="UTF-8"?>
<svg width="64" height="64" version="1.1" viewBox="-10 0 64 64" xml:space="preserve" xmlns="http://www.w3.org/2000/svg"><path d="m2.7383 9c-1.0542 0-1.9414 0.3594-2.6602 1.0781-0.71875 0.71875-1.0781 1.606-1.0781 2.6602v38.523c0 1.0542 0.35938 1.9414 1.0781 2.6602 0.7188 0.71872 1.606 1.0781 2.6602 1.0781h38.523c1.0542 0 1.9414-0.35932 2.6602-1.0781 0.71871-0.7188 1.0781-1.606 1.0781-2.6602v-38.523c0-1.0542-0.3594-1.9414-1.0781-2.6602s-1.606-1.0781-2.6602-1.0781h-38.523zm1.498 5.2363h7.9062v7.9062h-7.9062v-7.9062zm13.143 0h9.2422v7.9062h-9.2422v-7.9062zm14.479 0h7.9062v7.9062h-7.9062v-7.9062zm-27.621 13.143h7.9062v9.2422h-7.9062v-9.2422zm13.143 0h9.2422v9.2422h-9.2422v-9.2422zm14.479 0h7.9062v9.2422h-7.9062v-9.2422zm-27.621 14.479h7.9062v7.9062h-7.9062v-7.9062zm13.143 0h9.2422v7.9062h-9.2422v-7.9062zm14.479 0h7.9062v7.9062h-7.9062v-7.9062z"/></svg>
