<?xml version="1.0" encoding="UTF-8"?>
<svg width="24" height="24" version="1.1" viewBox="0 0 24 24" xml:space="preserve" xmlns="http://www.w3.org/2000/svg"><path d="m2.7188 0c-0.75 0-1.3906 0.26563-1.9219 0.79688-0.53125 0.53125-0.79688 1.1719-0.79688 1.9219v2.0625c0 0.34375 0.11719 0.63281 0.35156 0.86719 0.23437 0.23437 0.52344 0.35156 0.86719 0.35156 0.34375 0 0.625-0.11719 0.84375-0.35156 0.21875-0.23437 0.32812-0.52344 0.32812-0.86719v-2.0625c0-0.21875 0.10938-0.32812 0.32812-0.32812h2.0625c0.34375 0 0.63281-0.10938 0.86719-0.32812s0.35156-0.5 0.35156-0.84375c0-0.34375-0.11719-0.63281-0.35156-0.86719-0.23437-0.23437-0.52344-0.35156-0.86719-0.35156h-2.0625zm16.5 0c-0.34375 3.7007e-17 -0.63281 0.11719-0.86719 0.35156-0.23437 0.23437-0.35156 0.52344-0.35156 0.86719 0 0.34375 0.11719 0.625 0.35156 0.84375 0.23438 0.21875 0.52344 0.32812 0.86719 0.32812h2.0625c0.21875 0 0.32812 0.10938 0.32812 0.32812v2.0625c0 0.34375 0.10938 0.63281 0.32812 0.86719 0.21875 0.23437 0.5 0.35156 0.84375 0.35156s0.63281-0.11719 0.86719-0.35156c0.23437-0.23437 0.35156-0.52344 0.35156-0.86719v-2.0625c0-0.75-0.26563-1.3906-0.79688-1.9219-0.53125-0.53125-1.1719-0.79688-1.9219-0.79688h-2.0625zm-11.984 6c-0.21875 0-0.4375 0.0625-0.65625 0.1875 0 0 0.82526-0.55929-2.7617 1.832-0.34375 0.25-0.51562 0.57813-0.51562 0.98438 0 0.34375 0.11718 0.63281 0.35156 0.86719 0.23437 0.23437 0.52344 0.35156 0.86719 0.35156 0.125 0 0.35363-0.01278 0.65625-0.1875l0.88672-0.61328v7.3594c0 0.34375 0.10938 0.63282 0.32812 0.86719 0.21875 0.23438 0.5 0.35156 0.84375 0.35156 0.34375 0 0.63281-0.11718 0.86719-0.35156 0.23437-0.23437 0.35156-0.52344 0.35156-0.86719v-9.5625c0-0.34375-0.11719-0.63282-0.35156-0.86719-0.23437-0.23437-0.52344-0.35156-0.86719-0.35156zm11.391 0c-0.21875 0-0.4375 0.0625-0.65625 0.1875 0 0 0.82526-0.55929-2.7617 1.832-0.34375 0.25-0.51562 0.57813-0.51562 0.98438 0 0.34375 0.11718 0.63281 0.35156 0.86719 0.23437 0.23437 0.52344 0.35156 0.86719 0.35156 0.125 0 0.35363-0.01278 0.65625-0.1875l0.88672-0.61328v7.3594c0 0.34375 0.10938 0.63282 0.32812 0.86719 0.21875 0.23438 0.5 0.35156 0.84375 0.35156 0.34375 0 0.63282-0.11718 0.86719-0.35156 0.23437-0.23437 0.35156-0.52344 0.35156-0.86719v-9.5625c0-0.34375-0.11719-0.63282-0.35156-0.86719-0.23437-0.23437-0.52344-0.35156-0.86719-0.35156zm-6.6895 2.8008c-0.31586 0.012818-0.58301 0.12305-0.80274 0.32812-0.23437 0.21875-0.35156 0.5-0.35156 0.84375 0 0.34375 0.11719 0.63281 0.35156 0.86719 0.23437 0.23437 0.52344 0.35156 0.86719 0.35156 0.34375 0 0.63281-0.11719 0.86719-0.35156 0.23437-0.23437 0.35156-0.52344 0.35156-0.86719 0-0.34375-0.11719-0.625-0.35156-0.84375-0.23438-0.21875-0.52344-0.32812-0.86719-0.32812-0.021485 0-0.043396-8.545e-4 -0.064453 0zm0 4.3906c-0.31586 0.012818-0.58301 0.12305-0.80274 0.32812-0.23437 0.21875-0.35156 0.5-0.35156 0.84375 0 0.34375 0.11719 0.63282 0.35156 0.86719 0.23437 0.23437 0.52344 0.35156 0.86719 0.35156 0.34375 0 0.63281-0.11719 0.86719-0.35156 0.23437-0.23437 0.35156-0.52344 0.35156-0.86719 0-0.34375-0.11719-0.625-0.35156-0.84375-0.23438-0.21875-0.52344-0.32812-0.86719-0.32812-0.021485 0-0.043396-8.54e-4 -0.064453 0zm-10.717 4.8086c-0.34375 0-0.63281 0.11719-0.86719 0.35156-0.23437 0.23438-0.35156 0.52344-0.35156 0.86719v2.0625c0 0.75 0.26563 1.3906 0.79688 1.9219 0.53125 0.53125 1.1719 0.79688 1.9219 0.79688h2.0625c0.34375 0 0.63281-0.11719 0.86719-0.35156 0.23437-0.23438 0.35156-0.52344 0.35156-0.86719s-0.11719-0.625-0.35156-0.84375-0.52344-0.32812-0.86719-0.32812h-2.0625c-0.21875 0-0.32812-0.10938-0.32812-0.32812v-2.0625c0-0.34375-0.10938-0.63281-0.32812-0.86719-0.21875-0.23437-0.5-0.35156-0.84375-0.35156zm21.562 0c-0.34375 0-0.625 0.11719-0.84375 0.35156-0.21875 0.23438-0.32812 0.52344-0.32812 0.86719v2.0625c0 0.21875-0.10938 0.32812-0.32812 0.32812h-2.0625c-0.34375 0-0.63281 0.10938-0.86719 0.32812-0.23437 0.21875-0.35156 0.5-0.35156 0.84375s0.11719 0.63281 0.35156 0.86719c0.23438 0.23437 0.52344 0.35156 0.86719 0.35156h2.0625c0.75 0 1.3906-0.26563 1.9219-0.79688s0.79688-1.1719 0.79688-1.9219v-2.0625c0-0.34375-0.11719-0.63281-0.35156-0.86719-0.23438-0.23437-0.52344-0.35156-0.86719-0.35156z"/></svg>
