<?xml version="1.0" encoding="UTF-8"?>
<svg width="24" height="24" version="1.1" viewBox="67 5 .50246 .33663" xml:space="preserve" xmlns="http://www.w3.org/2000/svg"><path d="m67.109 4.9171c-0.0073 1.632e-4 -0.016497 0.0033157-0.027437 0.0094457-0.01095 0.00613-0.021639 0.013555-0.032099 0.022244-0.0021 0.00175-0.004116 0.0033604-0.006216 0.0050704h8.2e-5c-0.01058 0.00855-0.01988 0.017561-0.02801 0.02711-0.0093 0.01092-0.014327 0.020308-0.015047 0.028092-6.33e-4 0.00648 0.001406 0.012161 0.005806 0.016847 0.0045 0.00478 0.009897 0.0073545 0.016397 0.0080145 0.0039 3.657e-4 0.008004-5.615e-4 0.012104-0.0027397 0.0041-0.00219 0.009199-0.0066203 0.015129-0.013289 0.0074-0.0085 0.016935-0.017666 0.028705-0.027642 0.01208-0.0096199 0.022962-0.017234 0.032712-0.022817 0.0076-0.00451 0.013028-0.0086101 0.015988-0.012267 3e-3 -0.00365 0.004589-0.0074096 0.004989-0.011327 6.13e-4 -0.0065-8.18e-4 -0.012381-0.004661-0.017665-0.0037-0.0053199-0.009036-0.0083249-0.015416-0.0089549-9.75e-4 -9.94e-5 -0.001985-1.46e-4 -0.002985-1.227e-4h-4.1e-5zm0.28325 0c-5.06e-4 1.9e-5 -0.001013 7.3e-5 -0.001513 1.227e-4 -0.0064 6.3e-4 -0.011675 0.003645-0.015375 0.0089549-0.0038 0.00528-0.005302 0.011165-0.004702 0.017665 4e-4 0.00391 0.00203 0.0076796 0.00503 0.011327 3e-3 0.00366 0.008398 0.0077601 0.015988 0.012267 0.0097 0.00558 0.020632 0.013197 0.032712 0.022817 0.01176 0.00998 0.021295 0.019142 0.028705 0.027642 0.0059 0.00667 0.011029 0.011099 0.015129 0.013289 0.0041 0.00218 0.008204 0.0031097 0.012104 0.0027397 0.0065-6.6e-4 0.011897-0.0032345 0.016397-0.0080145 0.0044-0.00469 0.006365-0.010367 0.005765-0.016847-7.2e-4 -0.00778-0.005697-0.017172-0.015047-0.028092-0.0081-0.0095499-0.01743-0.01856-0.02801-0.02711h8.2e-5c-0.0021-0.00171-0.004075-0.0033204-0.006175-0.0050704-0.01046-0.00869-0.021149-0.016114-0.032099-0.022244-0.01172-0.00656-0.02136-0.0097257-0.02895-0.0094457h-4.1e-5zm-0.14087 0.041872c-0.03152 0-0.061317 0.0059997-0.089427 0.017992-0.02811 0.011994-0.052621 0.02845-0.073521 0.049355-0.02091 0.020905-0.037354 0.04542-0.049354 0.073521-0.01199 0.028101-0.017992 0.057899-0.017992 0.089427 0 0.031528 0.006002 0.061326 0.017992 0.089427s0.028454 0.052616 0.049354 0.073521 0.045411 0.037361 0.073521 0.049355c0.0281 0.012002 0.057907 0.017992 0.089427 0.017992 0.03153 0 0.061317-0.0059997 0.089427-0.017992 0.02811-0.011994 0.052621-0.02845 0.073521-0.049355 0.02091-0.020905 0.037364-0.04542 0.049354-0.073521s0.017992-0.057899 0.017992-0.089427c0-0.031528-0.006002-0.061326-0.017992-0.089427-0.01199-0.028101-0.028454-0.052616-0.049354-0.073521s-0.045411-0.037361-0.073521-0.049355c-0.02811-0.012002-0.057907-0.017992-0.089427-0.017992zm0 0.052421c0.02467 0 0.047801 0.0046497 0.069391 0.013903 0.02159 0.00925 0.040451 0.021921 0.056551 0.038028s0.028828 0.034961 0.038028 0.056551c0.0093 0.02159 0.013903 0.044717 0.013903 0.069391 0 0.024674-0.004703 0.047801-0.013903 0.069391-0.0092 0.02159-0.021928 0.040444-0.038028 0.056551-0.01611 0.016107-0.034961 0.028778-0.056551 0.038028s-0.044721 0.013903-0.069391 0.013903-0.047801-0.0046497-0.069391-0.013903c-0.02159-0.00925-0.040451-0.021921-0.056551-0.038028-0.0161-0.016107-0.028828-0.034961-0.038028-0.056551-0.0093-0.02159-0.013903-0.044717-0.013903-0.069391 0-0.024674 0.004703-0.047801 0.013903-0.069391s0.021928-0.040444 0.038028-0.056551c0.01611-0.016107 0.034961-0.028778 0.056551-0.038028s0.044721-0.013903 0.069391-0.013903zm0 0.045961c-0.0072 0-0.013255 0.0024503-0.018155 0.0073603s-0.007401 0.010955-0.007401 0.018155v0.066488a0.047388 0.047388 0 0 0-0.021836 0.039909 0.047388 0.047388 0 0 0 0.047392 0.047392 0.047388 0.047388 0 0 0 0.047392-0.047392 0.047388 0.047388 0 0 0-0.021836-0.039909v-0.066488c0-0.0072-0.002501-0.013245-0.007401-0.018155s-0.010945-0.0073603-0.018155-0.0073603z"/></svg>
