<?xml version="1.0" encoding="UTF-8"?>
<svg width="812" height="1212" version="1.1" viewBox="67 5 17 17" xmlns="http://www.w3.org/2000/svg">
 <g transform="matrix(.99928 0 0 .99928 63.668 .36692)">
  <path d="M18.3,8.59l.91-.9a1,1,0,0,0-1.42-1.42l-.9.91a8,8,0,0,0-9.79,0l-.91-.92A1,1,0,0,0,4.77,7.69l.92.91A7.92,7.92,0,0,0,4,13.5,8,8,0,1,0,18.3,8.59ZM12,19.5a6,6,0,1,1,6-6A6,6,0,0,1,12,19.5Zm-2-15h4a1,1,0,0,0,0-2H10a1,1,0,0,0,0,2Zm3,6a1,1,0,0,0-2,0v1.89a1.5,1.5,0,1,0,2,0Z" stroke-width="1.002"/>
 </g>
</svg>
