<?xml version="1.0" encoding="UTF-8"?>
<svg width="24" height="24" version="1.1" viewBox="0 0 24 24" xml:space="preserve" xmlns="http://www.w3.org/2000/svg"><path d="m4.2188 3c-1.1875 0-2.1875 0.4062-3 1.2188-0.8125 0.8125-1.2187 1.8125-1.2188 3v9.5625c0 1.1875 0.4062 2.1875 1.2188 3 0.8125 0.8125 1.8125 1.2188 3 1.2188h15.562c1.1875 0 2.1875-0.4062 3-1.2188s1.2188-1.8125 1.2188-3v-9.5625c0-1.1875-0.4062-2.1875-1.2188-3s-1.8125-1.2188-3-1.2188h-15.562zm0 2.3906h5v13.219h-5c-0.53125 0-0.96875-0.17188-1.3125-0.51562s-0.51562-0.78125-0.51562-1.3125v-9.5625c0-0.53125 0.17189-0.96875 0.51562-1.3125s0.78125-0.51562 1.3125-0.51562zm7.3906 0h8.1719c0.53125 0 0.96875 0.17189 1.3125 0.51562s0.51562 0.78125 0.51562 1.3125v9.5625c0 0.53125-0.17188 0.96875-0.51562 1.3125s-0.78125 0.51562-1.3125 0.51562h-8.1719v-13.219zm2.6094 4.6094c-0.17187 0-0.31641 0.058594-0.43359 0.17578-0.11719 0.11719-0.17578 0.26172-0.17578 0.43359 0 0.10938 0.039062 0.22656 0.11719 0.35156l2.3906 3.2812c0.125 0.17187 0.28906 0.25781 0.49219 0.25781 0.20313 0 0.36719-0.085939 0.49219-0.25781l2.3906-3.2812c0.078125-0.125 0.11719-0.24219 0.11719-0.35156 0-0.17187-0.058595-0.31641-0.17578-0.43359-0.11719-0.11719-0.26171-0.17578-0.43359-0.17578h-4.7812z"/></svg>
